<?xml version="1.0" standalone="no"?>
<!DOCTYPE svg PUBLIC "-//W3C//DTD SVG 20010904//EN"
 "http://www.w3.org/TR/2001/REC-SVG-20010904/DTD/svg10.dtd">
<svg version="1.0" xmlns="http://www.w3.org/2000/svg"
 width="1492.000000pt" height="436.000000pt" viewBox="0 0 1492.000000 436.000000"
 preserveAspectRatio="xMidYMid meet">

<g transform="translate(0.000000,436.000000) scale(0.100000,-0.100000)"
fill="#5bb75b" stroke="none">
<path d="M0 2180 l0 -2180 255 0 255 0 2 1797 3 1797 655 -1012 655 -1012 229
2 228 3 652 1007 651 1006 3 -1794 2 -1794 1290 0 1290 0 0 255 0 255 -1030 0
-1030 0 0 705 0 705 645 0 645 0 0 260 0 260 -645 0 -645 0 0 705 0 705 903
-1 902 0 643 -826 642 -826 0 -1099 0 -1098 260 0 260 0 0 1103 0 1102 106
135 c58 74 347 444 641 823 l536 687 898 0 899 0 0 -705 0 -705 -645 0 -645 0
0 -260 0 -260 645 0 645 0 0 -705 0 -705 -1030 0 -1030 0 0 -255 0 -255 1290
0 1290 0 0 961 0 961 308 -4 c305 -4 307 -4 375 -30 160 -64 277 -190 320
-348 12 -41 17 -132 21 -355 5 -329 13 -383 70 -537 117 -310 389 -551 711
-629 73 -17 120 -19 510 -19 391 0 437 2 510 19 394 96 701 426 765 824 18
111 8 352 -19 451 -24 91 -103 260 -152 327 -19 26 -198 230 -399 455 -898
1006 -871 975 -906 1049 -46 97 -62 194 -46 287 50 293 343 493 617 423 94
-24 162 -62 235 -131 93 -88 146 -192 159 -314 l6 -55 259 -3 259 -2 -6 102
c-23 432 -358 818 -789 913 -62 14 -115 16 -270 13 -187 -4 -196 -5 -288 -36
-281 -97 -497 -290 -617 -550 -36 -77 -82 -241 -84 -296 -1 -27 -2 -25 -11 14
-26 124 -53 213 -88 287 -134 286 -400 501 -700 567 -68 15 -225 16 -1710 14
l-1635 -3 -625 -802 c-344 -441 -629 -807 -635 -812 -7 -7 -225 266 -644 805
l-635 814 -1366 0 -1366 0 -699 -1080 c-384 -594 -701 -1080 -704 -1080 -3 1
-319 485 -702 1078 l-696 1077 -327 3 -326 2 0 -2180z m11995 1642 c160 -60
282 -190 329 -351 23 -80 23 -573 0 -652 -25 -85 -62 -148 -122 -211 -65 -68
-127 -110 -208 -140 -55 -20 -80 -22 -366 -26 l-308 -4 0 707 0 706 308 -3
c288 -4 311 -5 367 -26z m917 -812 c28 -89 98 -222 155 -296 27 -34 307 -351
623 -704 316 -354 588 -659 603 -679 71 -90 107 -195 107 -312 0 -141 -53
-262 -160 -363 -73 -69 -141 -107 -235 -131 -86 -22 -654 -22 -740 0 -177 46
-323 183 -375 353 -18 56 -20 93 -20 301 0 130 -5 279 -10 331 -23 235 -113
436 -272 605 l-61 65 60 63 c75 78 135 167 184 271 68 146 97 301 100 536 1
91 2 100 11 65 5 -22 19 -69 30 -105z"/>
</g>
</svg>
