<svg id="M" xmlns="http://www.w3.org/2000/svg" width="1492" height="436" viewBox="0 0 1492 436">
  <defs>
    <style>
      .cls-1 {
        fill: #5bb75b;
        fill-rule: evenodd;
      }
    </style>
  </defs>
  <path id="M_Color_Fill" data-name="M Color Fill" class="cls-1" d="M980,0h64q70.5,109.489,141,219,70.995-109.489,142-219h63V436h-50q-0.495-180.982-1-362-66,101.989-132,204h-44q-66-101.989-132-204-0.495,180.983-1,362H980V0Z"/>
  <path id="C1_Color_Fill" data-name="C1 Color Fill" class="cls-1" d="M102,0H388V96H338V50H152V386H338V340h50v96H102V0Z"/>
  <path id="C2_Color_Fill" data-name="C2 Color Fill" class="cls-1" d="M541,0H827V96H777V50H591V386H777V340h50v96H541V0Z"/>
</svg>
